# Blender v2.76 (sub 0) OBJ File: 'Cubes.blend'
# www.blender.org
mtllib Cubes.mtl
o Cube.003_Cube.004
v 1.714340 0.250963 -0.333279
v 1.714340 2.250963 -0.333279
v 1.714340 0.250963 -2.333279
v 1.714340 2.250963 -2.333279
v 3.714340 0.250963 -0.333279
v 3.714340 2.250963 -0.333279
v 3.714340 0.250963 -2.333279
v 3.714340 2.250963 -2.333279
vn -1.000000 0.000000 0.000000
vn 0.000000 0.000000 -1.000000
vn 1.000000 0.000000 0.000000
vn 0.000000 0.000000 1.000000
vn 0.000000 -1.000000 0.000000
vn 0.000000 1.000000 0.000000
usemtl None
s off
f 2//1 4//1 3//1 1//1
f 4//2 8//2 7//2 3//2
f 8//3 6//3 5//3 7//3
f 6//4 2//4 1//4 5//4
f 1//5 3//5 7//5 5//5
f 6//6 8//6 4//6 2//6
o Cube.002_Cube.003
v -1.535994 0.102334 -0.202714
v -1.535994 2.102334 -0.202714
v -1.535994 0.102334 -2.202713
v -1.535994 2.102334 -2.202713
v 0.464006 0.102334 -0.202714
v 0.464006 2.102334 -0.202714
v 0.464006 0.102334 -2.202713
v 0.464006 2.102334 -2.202713
vn -1.000000 0.000000 0.000000
vn 0.000000 0.000000 -1.000000
vn 1.000000 0.000000 0.000000
vn 0.000000 0.000000 1.000000
vn 0.000000 -1.000000 0.000000
vn 0.000000 1.000000 0.000000
usemtl None
s off
f 10//7 12//7 11//7 9//7
f 12//8 16//8 15//8 11//8
f 16//9 14//9 13//9 15//9
f 14//10 10//10 9//10 13//10
f 9//11 11//11 15//11 13//11
f 14//12 16//12 12//12 10//12
o Cube.001_Cube.002
v 1.436635 -1.395645 1.956148
v 1.436635 0.604355 1.956148
v 1.436635 -1.395645 -0.043852
v 1.436635 0.604355 -0.043852
v 3.436635 -1.395645 1.956148
v 3.436635 0.604355 1.956148
v 3.436635 -1.395645 -0.043852
v 3.436635 0.604355 -0.043852
vn -1.000000 0.000000 0.000000
vn 0.000000 0.000000 -1.000000
vn 1.000000 0.000000 0.000000
vn 0.000000 0.000000 1.000000
vn 0.000000 -1.000000 0.000000
vn 0.000000 1.000000 0.000000
usemtl None
s off
f 18//13 20//13 19//13 17//13
f 20//14 24//14 23//14 19//14
f 24//15 22//15 21//15 23//15
f 22//16 18//16 17//16 21//16
f 17//17 19//17 23//17 21//17
f 22//18 24//18 20//18 18//18
o Cube_Cube.001
v -0.086663 -0.551142 0.811428
v -0.086663 1.448858 0.811428
v -0.086663 -0.551142 -1.188572
v -0.086663 1.448858 -1.188572
v 1.913337 -0.551142 0.811428
v 1.913337 1.448858 0.811428
v 1.913337 -0.551142 -1.188572
v 1.913337 1.448858 -1.188572
vn -1.000000 0.000000 0.000000
vn 0.000000 0.000000 -1.000000
vn 1.000000 0.000000 0.000000
vn 0.000000 0.000000 1.000000
vn 0.000000 -1.000000 0.000000
vn 0.000000 1.000000 0.000000
usemtl None
s off
f 26//19 28//19 27//19 25//19
f 28//20 32//20 31//20 27//20
f 32//21 30//21 29//21 31//21
f 30//22 26//22 25//22 29//22
f 25//23 27//23 31//23 29//23
f 30//24 32//24 28//24 26//24
