# 3ds Max Wavefront OBJ Exporter v0.97b - (c)2007 guruware
# 创建的文件:21.10.2015 19:38:40

mtllib file.mtl

#
# object lwpgf06
#

v  -0.3759 1.8809 0.0788
v  -0.3759 0.1450 0.0788
v  0.3759 0.1450 -0.3552
v  0.3759 1.8809 -0.3552
v  -0.3594 1.9899 -0.2456
v  -0.3594 0.1242 -0.2456
v  0.2486 0.1242 0.1054
v  0.2486 1.9899 0.1054
v  0.1052 0.1214 0.0761
v  0.1086 0.1821 0.0800
v  0.0218 0.1821 0.1256
v  0.0206 0.1214 0.1205
v  0.0950 0.1821 0.0647
v  0.0919 0.1214 0.0611
v  0.0158 0.1214 0.1011
v  0.0169 0.1821 0.1056
v  0.0392 0.0000 -0.1997
v  0.0656 0.1214 -0.2500
v  0.1371 0.1214 -0.1867
v  0.0903 0.0000 -0.1544
v  0.0563 0.1214 -0.2323
v  0.0325 0.0000 -0.1870
v  0.0785 0.0000 -0.1463
v  0.1206 0.1214 -0.1753
v  -0.1788 0.1821 -0.1780
v  -0.1750 0.1214 -0.1753
v  -0.1106 0.1214 -0.2323
v  -0.1128 0.1821 -0.2365
v  -0.1914 0.1214 -0.1867
v  -0.1957 0.1821 -0.1896
v  -0.1224 0.1821 -0.2547
v  -0.1199 0.1214 -0.2500
v  -0.0749 0.1214 0.1205
v  -0.0762 0.1821 0.1256
v  -0.1630 0.1821 0.0800
v  -0.1595 0.1214 0.0761
v  -0.0702 0.1214 0.1011
v  -0.0579 0.0000 0.0514
v  -0.1124 0.0000 0.0229
v  -0.1463 0.1214 0.0611
v  -0.1995 0.1821 -0.0079
v  -0.1951 0.1214 -0.0096
v  -0.2055 0.1214 -0.0949
v  -0.2101 0.1821 -0.0955
v  -0.2138 0.1214 -0.0025
v  -0.2187 0.1821 -0.0007
v  -0.2305 0.1821 -0.0980
v  -0.2253 0.1214 -0.0974
v  -0.1329 0.0000 -0.1463
v  -0.0869 0.0000 -0.1870
v  0.0585 0.1821 -0.2365
v  0.1245 0.1821 -0.1780
v  -0.0272 0.1214 -0.2729
v  -0.0272 0.1821 -0.2781
v  0.0680 0.1821 -0.2547
v  0.1558 0.1821 -0.0955
v  0.1511 0.1214 -0.0949
v  0.1407 0.1214 -0.0096
v  0.1451 0.1821 -0.0079
v  0.1710 0.1214 -0.0974
v  0.1762 0.1821 -0.0980
v  0.1643 0.1821 -0.0007
v  0.1594 0.1214 -0.0025
v  0.1004 0.0000 -0.0888
v  0.0929 0.0000 -0.0277
v  -0.0713 0.1821 0.1056
v  -0.1494 0.1821 0.0646
v  -0.1473 0.0000 -0.0277
v  -0.1547 0.0000 -0.0888
v  0.0580 0.0000 0.0229
v  0.0036 0.0000 0.0514
v  0.1414 0.1821 -0.1896
v  -0.0272 0.1214 -0.2529
v  -0.0272 0.1821 -0.2576
v  -0.1447 0.0000 -0.1544
v  -0.0935 0.0000 -0.1997
v  -0.0272 0.0000 -0.2161
v  0.1146 0.0000 -0.0905
v  0.1063 0.0000 -0.0227
v  -0.0613 0.0000 0.0653
v  -0.1218 0.0000 0.0336
v  0.0675 0.0000 0.0336
v  0.0070 0.0000 0.0653
v  -0.1607 0.0000 -0.0227
v  -0.1689 0.0000 -0.0905
v  -0.0272 0.0000 -0.2018
v  -0.2157 0.2428 -0.0962
v  -0.1968 0.2428 -0.0939
v  -0.1678 0.2428 -0.1704
v  -0.1834 0.2428 -0.1812
v  -0.2047 0.2428 -0.0060
v  -0.1869 0.2428 -0.0127
v  -0.1154 0.2428 -0.2414
v  -0.1066 0.2428 -0.2246
v  -0.0272 0.2428 -0.2441
v  -0.0272 0.2428 -0.2632
v  0.0522 0.2428 -0.2246
v  0.0183 0.2428 0.1111
v  0.0137 0.2428 0.0926
v  -0.0681 0.2428 0.0926
v  -0.0726 0.2428 0.1111
v  0.0987 0.2428 0.0688
v  0.0861 0.2428 0.0546
v  0.1504 0.2428 -0.0060
v  0.1326 0.2428 -0.0127
v  0.1613 0.2428 -0.0962
v  0.1424 0.2428 -0.0939
v  0.1291 0.2428 -0.1812
v  0.1134 0.2428 -0.1704
v  0.0611 0.2428 -0.2414
v  -0.1531 0.2428 0.0688
v  -0.1405 0.2428 0.0546
v  -0.0351 1.9365 0.4297
v  -0.0351 1.9365 -0.4297
v  -0.0351 0.1618 -0.4297
v  -0.0351 0.1618 0.4297
# 116 vertices

vn 0.5000 -0.0000 0.8660
vn -0.5000 0.0000 0.8660
vn -0.5000 -0.0000 0.8660
vn 0.6416 -0.2525 0.7243
vn 0.6612 0.0758 0.7464
vn 0.2386 0.0758 0.9682
vn 0.2316 -0.2525 0.9395
vn -0.6616 -0.0687 -0.7467
vn -0.6453 0.2304 -0.7284
vn -0.2329 0.2304 -0.9448
vn -0.2387 -0.0687 -0.9686
vn 0.4209 -0.4240 -0.8019
vn 0.4497 -0.2525 -0.8568
vn 0.7963 -0.2525 -0.5497
vn 0.7454 -0.4240 -0.5145
vn -0.4522 0.2304 0.8616
vn -0.4283 0.3882 0.8160
vn -0.7585 0.3882 0.5235
vn -0.8008 0.2304 0.5528
vn 0.8210 -0.0687 0.5667
vn 0.8008 0.2304 0.5528
vn 0.4522 0.2304 0.8616
vn 0.4636 -0.0687 0.8834
vn -0.7963 -0.2525 -0.5497
vn -0.8206 0.0758 -0.5664
vn -0.4634 0.0758 -0.8829
vn -0.4497 -0.2525 -0.8568
vn -0.2316 -0.2525 0.9395
vn -0.2386 0.0758 0.9682
vn -0.6612 0.0758 0.7464
vn -0.6416 -0.2525 0.7243
vn 0.2329 0.2304 -0.9448
vn 0.2206 0.3882 -0.8948
vn 0.6111 0.3882 -0.6898
vn 0.6453 0.2304 -0.7284
vn 0.9328 -0.0687 -0.3538
vn 0.9099 0.2304 -0.3451
vn 0.9660 0.2304 0.1173
vn 0.9904 -0.0687 0.1203
vn -0.9047 -0.2525 0.3431
vn -0.9323 0.0758 0.3536
vn -0.9899 0.0758 -0.1202
vn -0.9606 -0.2525 -0.1166
vn 0.7585 0.3882 0.5235
vn 0.4283 0.3882 0.8160
vn -0.4636 -0.0687 0.8834
vn -0.8210 -0.0687 0.5667
vn 0.2320 -0.2456 -0.9412
vn 0.2385 -0.0834 -0.9676
vn 0.4634 0.0758 -0.8829
vn -0.9904 -0.0687 0.1203
vn -0.9660 0.2304 0.1173
vn -0.9099 0.2304 -0.3451
vn -0.9328 -0.0687 -0.3538
vn 0.9606 -0.2525 -0.1166
vn 0.9899 0.0758 -0.1202
vn 0.9323 0.0758 0.3536
vn 0.9047 -0.2525 0.3431
vn -0.9149 0.3882 0.1111
vn -0.8617 0.3882 -0.3268
vn 0.2388 -0.0687 -0.9686
vn 0.6616 -0.0687 -0.7467
vn 0.8617 0.3882 -0.3268
vn 0.9149 0.3882 0.1111
vn -0.6111 0.3882 -0.6898
vn -0.2206 0.3882 -0.8948
vn 0.8206 0.0758 -0.5664
vn 0.2332 0.2240 0.9463
vn 0.2388 -0.0667 0.9688
vn -0.2387 0.0736 -0.9683
vn -0.2385 -0.0834 -0.9676
vn -0.7454 -0.4240 -0.5145
vn -0.4209 -0.4240 -0.8019
vn 0.2179 -0.4138 -0.8839
vn 0.8991 -0.4240 -0.1092
vn 0.8468 -0.4240 0.3212
vn -0.2167 -0.4240 0.8794
vn -0.6006 -0.4240 0.6779
vn 0.6006 -0.4240 0.6779
vn 0.2167 -0.4240 0.8794
vn -0.8468 -0.4240 0.3212
vn -0.8991 -0.4240 -0.1092
vn -0.2386 0.0751 0.9682
vn -0.2179 -0.4138 -0.8839
vn 0.2215 0.3785 0.8987
vn -0.2215 0.3785 0.8987
vn 0.0000 1.0000 0.0000
vn 0.9639 0.2390 -0.1170
vn 0.9079 0.2390 0.3443
vn 0.7991 0.2390 -0.5516
vn 0.4513 0.2390 -0.8598
vn -0.2324 0.2390 0.9428
vn -0.6439 0.2390 0.7268
vn 0.2324 0.2390 0.9428
vn -0.7991 0.2390 -0.5516
vn -0.4513 0.2390 -0.8598
vn -0.9639 0.2390 -0.1170
vn -0.9079 0.2390 0.3443
vn 0.6439 0.2390 0.7268
vn -0.2328 0.2324 -0.9444
vn 0.2328 0.2324 -0.9444
vn -0.2337 -0.2162 -0.9480
vn 0.2337 -0.2162 -0.9480
vn -0.6474 -0.2162 -0.7308
vn 0.9692 -0.2162 0.1177
vn 0.8035 -0.2162 0.5546
vn 0.9129 -0.2162 -0.3462
vn -0.9129 -0.2162 -0.3462
vn -0.9692 -0.2162 0.1177
vn 0.4537 -0.2162 0.8645
vn 0.2340 -0.2102 0.9492
vn -0.4537 -0.2162 0.8645
vn -0.8035 -0.2162 0.5546
vn -0.2340 -0.2102 0.9492
vn 0.6474 -0.2162 -0.7308
vn -0.0000 -1.0000 -0.0000
vn -1.0000 -0.0000 -0.0000
# 117 vertex normals

vt 0.0000 1.0000 0.0000
vt 0.0000 0.0000 0.0000
vt 1.0000 0.0000 0.0000
vt 1.0000 1.0000 0.0000
vt 0.6144 0.5000 0.0000
vt 0.6144 0.7498 0.0000
vt 0.5382 0.7498 0.0000
vt 0.5382 0.5000 0.0000
vt 0.6143 0.7498 0.0000
vt 0.6142 0.5000 0.0000
vt 0.5381 0.5000 0.0000
vt 0.5381 0.7498 0.0000
vt 0.9210 0.0005 0.0000
vt 0.9215 0.5000 0.0000
vt 0.8436 0.5000 0.0000
vt 0.8429 0.0005 0.0000
vt 0.9213 0.5000 0.0000
vt 0.9208 0.0005 0.0000
vt 0.8425 0.0005 0.0000
vt 0.8434 0.5000 0.0000
vt 0.1565 0.7498 0.0000
vt 0.1566 0.5000 0.0000
vt 0.0787 0.5000 0.0000
vt 0.0786 0.7498 0.0000
vt 0.1564 0.5000 0.0000
vt 0.1563 0.7498 0.0000
vt 0.0785 0.7498 0.0000
vt 0.0785 0.5000 0.0000
vt 0.4618 0.5000 0.0000
vt 0.4618 0.7498 0.0000
vt 0.3856 0.7498 0.0000
vt 0.3856 0.5000 0.0000
vt 0.4619 0.5000 0.0000
vt 0.4621 0.0005 0.0000
vt 0.3864 0.0005 0.0000
vt 0.3858 0.5000 0.0000
vt 0.3097 0.7498 0.0000
vt 0.3097 0.5000 0.0000
vt 0.2335 0.5000 0.0000
vt 0.2334 0.7498 0.0000
vt 0.3095 0.5000 0.0000
vt 0.3094 0.7498 0.0000
vt 0.2332 0.7498 0.0000
vt 0.2333 0.5000 0.0000
vt 0.1575 0.0005 0.0000
vt 0.0792 0.0005 0.0000
vt 0.9214 0.7498 0.0000
vt 0.8435 0.7498 0.0000
vt 1.0000 0.5000 0.0000
vt 1.0000 0.7498 0.0000
vt 0.9215 0.7498 0.0000
vt 0.7666 0.7498 0.0000
vt 0.7665 0.5000 0.0000
vt 0.6903 0.5000 0.0000
vt 0.6903 0.7498 0.0000
vt 0.7667 0.5000 0.0000
vt 0.7668 0.7498 0.0000
vt 0.6906 0.7498 0.0000
vt 0.6905 0.5000 0.0000
vt 0.7654 0.0005 0.0000
vt 0.6893 0.0005 0.0000
vt 0.4619 0.7498 0.0000
vt 0.3857 0.7498 0.0000
vt 0.3107 0.0005 0.0000
vt 0.2346 0.0005 0.0000
vt 0.6136 0.0005 0.0000
vt 0.5379 0.0005 0.0000
vt 0.8437 0.7498 0.0000
vt -0.0000 0.5000 0.0000
vt -0.0000 0.7498 0.0000
vt 0.1571 0.0005 0.0000
vt 0.0790 0.0005 0.0000
vt 1.0000 0.0005 0.0000
vt 0.7658 0.0005 0.0000
vt 0.6896 0.0005 0.0000
vt 0.3862 0.0005 0.0000
vt 0.6138 0.0005 0.0000
vt 0.3104 0.0005 0.0000
vt 0.2342 0.0005 0.0000
vt -0.0000 0.0005 0.0000
vt 0.2334 0.9995 0.0000
vt 0.2336 0.9995 0.0000
vt 0.1567 0.9995 0.0000
vt 0.1565 0.9995 0.0000
vt 0.3096 0.9995 0.0000
vt 0.3099 0.9995 0.0000
vt 0.0786 0.9995 0.0000
vt 0.0787 0.9995 0.0000
vt -0.0000 0.9995 0.0000
vt 1.0000 0.9995 0.0000
vt 0.9213 0.9995 0.0000
vt 0.5381 0.9995 0.0000
vt 0.4619 0.9995 0.0000
vt 0.6143 0.9995 0.0000
vt 0.6141 0.9995 0.0000
vt 0.6904 0.9995 0.0000
vt 0.6901 0.9995 0.0000
vt 0.7666 0.9995 0.0000
vt 0.7664 0.9995 0.0000
vt 0.8435 0.9995 0.0000
vt 0.8433 0.9995 0.0000
vt 0.9214 0.9995 0.0000
vt 0.3857 0.9995 0.0000
vt 0.3859 0.9995 0.0000
# 104 texture coords

g lwpgf06
usemtl lwpg06a
s 1
f 1/1/1 2/2/1 3/3/1 4/4/1 
usemtl lwpg06c
f 5/1/2 6/2/3 7/3/3 8/4/3 
usemtl lwpgf06G
s 2
f 9/5/4 10/6/5 11/7/6 12/8/7 
f 13/9/8 14/10/9 15/11/10 16/12/11 
f 17/13/12 18/14/13 19/15/14 20/16/15 
f 21/17/16 22/18/17 23/19/18 24/20/19 
f 25/21/20 26/22/21 27/23/22 28/24/23 
f 29/25/24 30/26/25 31/27/26 32/28/27 
f 33/29/28 34/30/29 35/31/30 36/32/31 
f 37/33/32 38/34/33 39/35/34 40/36/35 
f 41/37/36 42/38/37 43/39/38 44/40/39 
f 45/41/40 46/42/41 47/43/42 48/44/43 
f 26/22/21 49/45/44 50/46/45 27/23/22 
f 51/47/46 21/17/16 24/20/19 52/48/47 
f 53/49/48 54/50/49 55/51/50 18/14/13 
f 56/52/51 57/53/52 58/54/53 59/55/54 
f 60/56/55 61/57/56 62/58/57 63/59/58 
f 63/59/58 62/58/57 10/6/5 9/5/4 
f 57/53/52 64/60/59 65/61/60 58/54/53 
f 66/62/61 37/33/32 40/36/35 67/63/62 
f 42/38/37 68/64/63 69/65/64 43/39/38 
f 14/10/9 70/66/65 71/67/66 15/11/10 
f 19/15/14 72/68/67 61/57/56 60/56/55 
f 18/14/13 55/51/50 72/68/67 19/15/14 
f 28/24/23 27/23/22 73/69/68 74/70/69 
f 32/28/27 31/27/26 54/70/70 53/69/71 
f 75/71/72 29/25/24 32/28/27 76/72/73 
f 77/73/74 53/49/48 18/14/13 17/13/12 
f 78/74/75 60/56/55 63/59/58 79/75/76 
f 20/16/15 19/15/14 60/56/55 78/74/75 
f 80/34/77 33/29/28 36/32/31 81/76/78 
f 82/77/79 9/5/4 12/8/7 83/67/80 
f 84/78/81 45/41/40 48/44/43 85/79/82 
f 44/40/39 43/39/38 26/22/21 25/21/20 
f 48/44/43 47/43/42 30/26/25 29/25/24 
f 59/55/54 58/54/53 14/10/9 13/9/8 
f 67/63/62 40/36/35 42/38/37 41/37/36 
f 36/32/31 35/31/30 46/42/41 45/41/40 
f 52/48/47 24/20/19 57/53/52 56/52/51 
f 16/12/11 15/11/10 37/33/32 66/62/61 
f 12/8/7 11/7/6 34/30/29 33/29/28 
f 74/50/83 73/49/83 21/17/16 
f 79/75/76 63/59/58 9/5/4 82/77/79 
f 74/50/83 21/17/16 51/47/46 
f 76/72/73 32/28/27 53/69/84 
f 81/76/78 36/32/31 45/41/40 84/78/81 
f 85/79/82 48/44/43 29/25/24 75/71/72 
f 83/67/80 12/8/7 33/29/28 80/34/77 
f 24/20/19 23/19/18 64/60/59 57/53/52 
f 43/39/38 69/65/64 49/45/44 26/22/21 
f 27/23/22 50/46/45 86/80/85 73/69/68 
f 73/49/86 86/73/86 22/18/17 
f 58/54/53 65/61/60 70/66/65 14/10/9 
f 15/11/10 71/67/66 38/34/33 37/33/32 
f 40/36/35 39/35/34 68/64/63 42/38/37 
f 73/49/86 22/18/17 21/17/16 
s 4
f 87/81/87 88/82/87 89/83/87 90/84/87 
f 91/85/87 92/86/87 88/82/87 87/81/87 
f 93/87/87 94/88/87 95/89/87 96/89/87 
f 96/90/87 95/90/87 97/91/87 
f 98/92/87 99/92/87 100/93/87 101/93/87 
f 102/94/87 103/95/87 99/92/87 98/92/87 
f 104/96/87 105/97/87 103/95/87 102/94/87 
f 106/98/87 107/99/87 105/97/87 104/96/87 
f 108/100/87 109/101/87 107/99/87 106/98/87 
f 110/102/87 97/91/87 109/101/87 108/100/87 
f 90/84/87 89/83/87 94/88/87 93/87/87 
f 111/103/87 112/104/87 92/86/87 91/85/87 
f 101/93/87 100/93/87 112/104/87 111/103/87 
f 96/90/87 97/91/87 110/102/87 
s 2
f 76/72/73 53/69/84 77/80/84 
f 61/57/56 106/98/88 104/96/89 62/58/57 
f 72/68/67 108/100/90 106/98/88 61/57/56 
f 55/51/50 110/102/91 108/100/90 72/68/67 
f 34/30/29 101/93/92 111/103/93 35/31/30 
f 11/7/6 98/92/94 101/93/92 34/30/29 
f 30/26/25 90/84/95 93/87/96 31/27/26 
f 47/43/42 87/81/97 90/84/95 30/26/25 
f 46/42/41 91/85/98 87/81/97 47/43/42 
f 10/6/5 102/94/99 98/92/94 11/7/6 
f 62/58/57 104/96/89 102/94/99 10/6/5 
f 31/27/26 93/87/96 96/89/100 54/70/70 
f 54/50/101 96/90/101 110/102/91 
f 35/31/30 111/103/93 91/85/98 46/42/41 
f 54/50/101 110/102/91 55/51/50 
f 99/92/102 16/12/11 66/62/61 100/93/103 
f 103/95/104 13/9/8 16/12/11 99/92/102 
f 88/82/105 44/40/39 25/21/20 89/83/106 
f 92/86/107 41/37/36 44/40/39 88/82/105 
f 105/97/108 59/55/54 13/9/8 103/95/104 
f 107/99/109 56/52/51 59/55/54 105/97/108 
f 94/88/110 28/24/23 74/70/69 95/89/111 
f 89/83/106 25/21/20 28/24/23 94/88/110 
f 97/91/112 51/47/46 52/48/47 109/101/113 
f 95/90/114 51/47/46 97/91/112 
f 112/104/115 67/63/62 41/37/36 92/86/107 
f 95/90/114 74/50/114 51/47/46 
f 100/93/103 66/62/61 67/63/62 112/104/115 
f 109/101/113 52/48/47 56/52/51 107/99/109 
s 4
f 50/46/116 77/80/116 86/80/116 
f 86/73/116 77/73/116 17/13/116 
f 68/64/116 84/78/116 85/79/116 69/65/116 
f 39/35/116 81/76/116 84/78/116 68/64/116 
f 22/18/116 17/13/116 20/16/116 23/19/116 
f 86/73/116 17/13/116 22/18/116 
f 50/46/116 76/72/116 77/80/116 
f 49/45/116 75/71/116 76/72/116 50/46/116 
f 71/67/116 83/67/116 80/34/116 38/34/116 
f 70/66/116 82/77/116 83/67/116 71/67/116 
f 65/61/116 79/75/116 82/77/116 70/66/116 
f 64/60/116 78/74/116 79/75/116 65/61/116 
f 23/19/116 20/16/116 78/74/116 64/60/116 
f 69/65/116 85/79/116 75/71/116 49/45/116 
f 38/34/116 80/34/116 81/76/116 39/35/116 
usemtl lwpg06e
s 1
f 113/1/117 114/4/117 115/3/117 116/2/117 
# 99 polygons - 16 triangles

